<?xml version="1.0" encoding="UTF-8"?>
<svg version="1.1" xmlns="http://www.w3.org/2000/svg" width="261" height="288">
<path d="M0 0 C86.13 0 172.26 0 261 0 C261 95.04 261 190.08 261 288 C174.87 288 88.74 288 0 288 C0 192.96 0 97.92 0 0 Z " fill="#040404" transform="translate(0,0)"/>
<path d="M0 0 C21.40039197 18.09167888 35.39387699 41.28927569 40.4375 68.9375 C41.28377296 73.36883341 41.28377296 73.36883341 46.4375 77.6875 C-31.1125 77.6875 -108.6625 77.6875 -188.5625 77.6875 C-186.5825 75.3775 -184.6025 73.0675 -182.5625 70.6875 C-181.66261857 67.92317672 -181.04365695 65.5694744 -180.5625 62.75 C-174.52277028 33.5686026 -156.72328755 8.45769232 -131.78466797 -7.94238281 C-90.16834298 -33.60166823 -38.25945233 -30.44703269 0 0 Z " fill="#FCFCFC" transform="translate(201.5625,210.3125)"/>
<path d="M0 0 C0.84175781 0.44214844 1.68351562 0.88429688 2.55078125 1.33984375 C9.16487433 5.05319928 14.59954936 9.70006537 20 15 C20.94166016 15.90492187 20.94166016 15.90492187 21.90234375 16.828125 C35.89084161 31.4193019 39.68351911 51.11953052 39.33203125 70.65625 C38.57339858 87.9643139 30.63037786 105.08305353 18 117 C-0.27628788 133.20084502 -19.13653552 138.34863145 -43.21923828 137.23828125 C-59.20544376 135.86843607 -73.93630045 127.23478769 -85 116 C-85.70898438 115.28972656 -86.41796875 114.57945312 -87.1484375 113.84765625 C-101.57898543 98.56012175 -106.72507269 79.45481323 -106.33984375 58.87109375 C-105.4080146 39.56560428 -95.9302079 22.92599698 -82 10 C-59.29944692 -10.0917911 -26.84387392 -14.25446255 0 0 Z " fill="#FBFBFB" transform="translate(164,28)"/>
<path d="M0 0 C38.94 0 77.88 0 118 0 C115.15695476 1.89536349 113.14267077 2.50014678 109.85961914 3.19091797 C86.8895391 8.06161592 66.3707339 22.67469514 53.4375 42.1875 C41.2254297 62.06634089 35.16525796 86.03869414 39.94140625 109.2421875 C46.54746958 136.76790355 61.15831809 157.79660864 85 173 C82.49452487 175.50547513 80.17896735 176.2055071 76.875 177.5 C62.4497791 183.47411941 50.42679624 192.491322 39 203 C38.31550781 203.61359375 37.63101563 204.2271875 36.92578125 204.859375 C17.73302972 222.93366782 6.92388324 248.82349624 1 274 C0.67 274 0.34 274 0 274 C0 183.58 0 93.16 0 0 Z " fill="#FBFBFB" transform="translate(0,0)"/>
<path d="M0 0 C39.27 0 78.54 0 119 0 C119 88.77 119 177.54 119 269 C118.34 269 117.68 269 117 269 C116.8548999 268.46745605 116.7097998 267.93491211 116.56030273 267.38623047 C113.38362219 255.88484013 109.81204188 245.46718443 104 235 C103.57976562 234.1853125 103.15953125 233.370625 102.7265625 232.53125 C88.31725988 205.06653897 62.57483862 185.02702492 34 174 C37.03973194 170.72644253 40.29357736 168.47094843 44 166 C45.86028149 164.42322696 47.68072783 162.81303144 49.484375 161.171875 C51 160 51 160 53 160 C53.24234375 159.43539062 53.4846875 158.87078125 53.734375 158.2890625 C55.24375309 155.55913792 57.09307633 153.62729785 59.25 151.375 C76.4567266 132.43660603 81.33688227 107.70364158 80.21582031 82.81445312 C79.71199109 76.24415527 78.09865955 70.24056848 76 64 C75.66097656 62.91074219 75.32195312 61.82148437 74.97265625 60.69921875 C67.29857946 38.33242554 51.47179553 22.12586033 31 11 C29.92105469 10.40445312 28.84210938 9.80890625 27.73046875 9.1953125 C18.89402814 4.7270746 9.65260396 2.8416865 0 1 C0 0.67 0 0.34 0 0 Z " fill="#FBFBFB" transform="translate(142,0)"/>
<path d="M0 0 C0.80566406 0.00322266 1.61132812 0.00644531 2.44140625 0.00976562 C3.70404297 0.02233398 3.70404297 0.02233398 4.9921875 0.03515625 C5.84167969 0.03966797 6.69117187 0.04417969 7.56640625 0.04882812 C9.66669659 0.06062751 11.7669508 0.07856319 13.8671875 0.09765625 C10.41799124 2.39712042 7.7290853 2.9053466 3.6796875 3.72265625 C1.77123047 4.11324219 1.77123047 4.11324219 -0.17578125 4.51171875 C-1.15160156 4.70507812 -2.12742187 4.8984375 -3.1328125 5.09765625 C-4.1228125 3.77765625 -5.1128125 2.45765625 -6.1328125 1.09765625 C-3.8362755 -0.05061225 -2.54968083 -0.0179555 0 0 Z " fill="#F3F3F3" transform="translate(104.1328125,-0.09765625)"/>
<path d="M0 0 C-2.22825644 2.22825644 -3.65761628 2.69239369 -6.625 3.625 C-7.44226563 3.88539063 -8.25953125 4.14578125 -9.1015625 4.4140625 C-9.72804688 4.60742188 -10.35453125 4.80078125 -11 5 C-11.33 4.01 -11.66 3.02 -12 2 C-10 -1 -10 -1 -7.125 -1.8125 C-3.92411417 -2.00455315 -2.63390925 -1.72217143 0 0 Z " fill="#EFEFEF" transform="translate(85,173)"/>
<path d="M0 0 C5.28 0 10.56 0 16 0 C15.67 1.32 15.34 2.64 15 4 C10.05 3.01 5.1 2.02 0 1 C0 0.67 0 0.34 0 0 Z " fill="#E5E5E5" transform="translate(142,0)"/>
<path d="M0 0 C1.16945792 0.80847729 2.33550461 1.62189112 3.5 2.4375 C4.47453125 3.11619141 4.47453125 3.11619141 5.46875 3.80859375 C5.9740625 4.20175781 6.479375 4.59492188 7 5 C7 5.33 7 5.66 7 6 C4.69 6 2.38 6 0 6 C0 4.02 0 2.04 0 0 Z " fill="#EBEBEB" transform="translate(0,282)"/>
<path d="M0 0 C0.66 0 1.32 0 2 0 C0.73058503 3.91402949 -0.51167694 5.79072873 -4 8 C-4.66 7.67 -5.32 7.34 -6 7 C-5.04882866 5.8274869 -4.08882991 4.66212985 -3.125 3.5 C-2.59132812 2.8503125 -2.05765625 2.200625 -1.5078125 1.53125 C-0.76144531 0.77328125 -0.76144531 0.77328125 0 0 Z " fill="#EFEFEF" transform="translate(62,208)"/>
<path d="M0 0 C0.99 0.33 1.98 0.66 3 1 C2.34 1.61875 1.68 2.2375 1 2.875 C-1.2284549 4.75637427 -1.2284549 4.75637427 -1 7 C-2.65 7.66 -4.3 8.32 -6 9 C-4.47291037 5.56404834 -2.40072955 2.88087546 0 0 Z " fill="#191919" transform="translate(62,30)"/>
<path d="M0 0 C0 1.65 0 3.3 0 5 C-2.31 5 -4.62 5 -7 5 C-2.25 0 -2.25 0 0 0 Z " fill="#E2E2E2" transform="translate(261,283)"/>
<path d="M0 0 C4.75 0.875 4.75 0.875 7 2 C7 2.99 7 3.98 7 5 C4.0625 4.1875 4.0625 4.1875 1 3 C0.67 2.01 0.34 1.02 0 0 Z " fill="#F2F2F2" transform="translate(172,194)"/>
<path d="M0 0 C0.66 0.33 1.32 0.66 2 1 C-0.57784846 3.64752004 -2.91648098 5.94432065 -6 8 C-6 5 -6 5 -4.6875 3.61328125 C-3.125 2.40885417 -1.5625 1.20442708 0 0 Z " fill="#191919" transform="translate(53,190)"/>
<path d="M0 0 C0.66 0.33 1.32 0.66 2 1 C1.625 3.9375 1.625 3.9375 1 7 C0.01 7.495 0.01 7.495 -1 8 C-1.93065133 5.39417629 -2.14917407 4.35801776 -1.0625 1.75 C-0.711875 1.1725 -0.36125 0.595 0 0 Z " fill="#E1E1E1" transform="translate(11,235)"/>
<path d="M0 0 C0.99 0 1.98 0 3 0 C5.1875 2.5 5.1875 2.5 7 5 C6.01 5.33 5.02 5.66 4 6 C2.62437146 4.71034824 1.29233607 3.37310707 0 2 C0 1.34 0 0.68 0 0 Z " fill="#EFEFEF" transform="translate(226,205)"/>
</svg>
